HIERARCHY
ROOT pelvis
{
  OFFSET 0 100 0
  CHANNELS 6 Xposition Yposition Zposition Zrotation Xrotation Yrotation
  JOINT pelvis_right_femur
  {
    OFFSET -10.78128 -3.44521 -0.5502486
    CHANNELS 3 Zrotation Xrotation Yrotation
    JOINT right_femur_tibia
    {
      OFFSET -0.8047443 -44.0398 -0.1307829
      CHANNELS 3 Zrotation Xrotation Yrotation
      JOINT right_tibia_foot
      {
        OFFSET 3.006224 -47.83518 -5
        CHANNELS 3 Zrotation Xrotation Yrotation
        End Site
        {
          OFFSET 0 -5 15
        }
      }
    }
  }
  JOINT pelvis_left_femur
  {
    OFFSET 10.78128 -3.44521 -0.5502486
    CHANNELS 3 Zrotation Xrotation Yrotation
    JOINT left_femur_tibia
    {
      OFFSET 0.8047443 -44.0398 -0.1307829
      CHANNELS 3 Zrotation Xrotation Yrotation
      JOINT left_tibia_foot
      {
        OFFSET -4.370144 -48.10324 -4.275266
        CHANNELS 3 Zrotation Xrotation Yrotation
        End Site
        {
          OFFSET 0 -5 15
        }
      }
    }
  }
  JOINT pelvis_spine1
  {
    OFFSET 0 6.468898 -3.129235
    CHANNELS 3 Zrotation Xrotation Yrotation
    JOINT spine1
    {
      OFFSET 0 23.15396 4.99043
      CHANNELS 3 Zrotation Xrotation Yrotation
      JOINT spine2
      {
        OFFSET 0 20.79997 -5.064912
        CHANNELS 3 Zrotation Xrotation Yrotation
        JOINT neck
        {
          OFFSET 0 14.38658 9.616178
          CHANNELS 3 Zrotation Xrotation Yrotation
          End Site
          {
            OFFSET 0 20 0
          }
        }
      }
      JOINT right_manubrium
      {
        OFFSET -5.722621 16.35077 3.967754
        CHANNELS 3 Zrotation Xrotation Yrotation
        JOINT right_clavicle
        {
          OFFSET -13.16364 1.694482 -4.693211
          CHANNELS 3 Zrotation Xrotation Yrotation
          JOINT right_humerus
          {
            OFFSET -28.5034 -0.3100689 -2.792744
            CHANNELS 3 Zrotation Xrotation Yrotation
            JOINT right_radius
            {
              OFFSET -25.15693 0.02248979 -1.271978
              CHANNELS 3 Zrotation Xrotation Yrotation
              End Site
              {
                OFFSET -15 0 0
              }
            }
          }
        }
      }
      JOINT left_manubrium
      {
        OFFSET 5.722621 16.35077 3.967754
        CHANNELS 3 Zrotation Xrotation Yrotation
        JOINT left_clavicle
        {
          OFFSET 13.16364 1.694482 -4.693211
          CHANNELS 3 Zrotation Xrotation Yrotation
          JOINT left_humerus
          {
            OFFSET 29.39168 -1.063119 -2.237045
            CHANNELS 3 Zrotation Xrotation Yrotation
            JOINT left_radius
            {
              OFFSET 24.59957 -0.9528479 0.9047498
              CHANNELS 3 Zrotation Xrotation Yrotation
              End Site
              {
                OFFSET 15 -0 -0
              }
            }
          }
        }
      }
    }
  }
}
MOTION
Frames: 11
Frame Time: 0.0416666666667
1407.234 78.40325 -472.8564 -7.390334 6.940913 -141.2757 1.355176 11.52081 7.260537 -0 35.37445 -0 11.11342 -14.18592 -4.744617 -1.706759 -16.66739 -6.322923 -0 31.41221 -0 -8.634112 -9.097999 18.14822 -0.7119161 1.306972 8.535481 -2.370114 8.976839 -1.619888 3.616157 22.34189 6.057172 0.9011702 -13.25477 10.47751 2.066703 -18.52797 10.42206 80.67981 22.70499 -5.922081 -0 0 24.98809 -28.91606 19.90697 13.31872 4.376514 -12.97088 -3.000852 -91.86525 22.63827 22.44671 0 0 -9.70478 -2.989681 6.997295 16.58601
1402.146 78.05017 -477.4537 -7.276905 6.593518 -141.0075 0.9977283 11.96655 6.969353 -0 38.10547 -0 10.8685 -13.12135 -4.873761 -2.016882 -16.92343 -6.4246 -0 29.57478 -0 -8.431189 -9.429864 17.91929 -0.9761241 1.179779 8.490271 -2.369367 8.812225 -1.684583 3.503682 22.31389 6.046907 0.9380905 -13.63929 10.32024 2.063956 -18.6508 10.33686 80.61938 22.87512 -5.617831 -0 0 24.98597 -28.76165 19.31683 13.46498 4.215402 -12.7725 -2.897042 -92.04641 22.95233 23.08456 0 0 -9.158483 -3.220067 6.867756 17.10821
1396.971 77.85011 -482.0313 -7.233143 6.286573 -140.5726 0.6764021 11.89824 6.656443 -0 40.91045 -0 10.49081 -11.73218 -5.117875 -2.413917 -16.52898 -6.576318 -0 28.40161 -0 -8.176585 -9.704538 17.68557 -1.257047 1.045336 8.330156 -2.331849 8.742621 -1.829255 3.380396 22.31982 6.077649 0.992515 -13.97734 10.18629 2.148401 -18.60907 10.28531 80.75414 23.25233 -5.641867 -0 0 24.54172 -28.65429 18.88384 13.60137 4.039389 -12.74717 -2.862651 -91.96873 23.18196 23.28124 0 0 -8.880193 -3.300229 6.80803 17.4086
1391.736 77.81965 -486.5677 -7.263982 6.042114 -139.9774 0.4099009 11.36172 6.354755 -0 43.65403 -0 10.08532 -10.23976 -5.447949 -2.845946 -15.62183 -6.752765 -0 27.69674 -0 -7.893923 -9.960301 17.45808 -1.526369 0.9350347 8.080459 -2.272582 8.746868 -2.026733 3.258862 22.3522 6.138977 1.043714 -14.23111 10.09198 2.28789 -18.44176 10.26052 81.03581 23.72928 -5.911375 -0 0 23.82699 -28.5906 18.61671 13.71617 3.871387 -12.84488 -2.89201 -91.68149 23.33324 23.09441 0 0 -8.826316 -3.266065 6.796761 17.5167
1386.468 77.95016 -491.0383 -7.356049 5.862628 -139.2346 0.2097713 10.41174 6.082167 -0 46.20453 -0 9.73837 -8.843376 -5.833893 -3.270173 -14.33179 -6.939101 -0 27.25793 -0 -7.618543 -10.22885 17.23533 -1.759322 0.8660151 7.767569 -2.203026 8.792072 -2.254649 3.147371 22.40175 6.224483 1.077987 -14.38191 10.04888 2.452007 -18.18259 10.24851 81.41344 24.22542 -6.350052 -0 0 22.99168 -28.55749 18.51196 13.79574 3.735617 -13.01796 -2.968208 -91.2414 23.42397 22.59711 0 0 -8.959082 -3.156378 6.816295 17.47505
1381.187 78.21476 -495.4212 -7.488338 5.73818 -138.3614 0.07894371 9.102913 5.843859 -0 48.44224 -0 9.50092 -7.690343 -6.249748 -3.65814 -12.76051 -7.130608 -0 26.93141 -0 -7.385429 -10.52843 17.01098 -1.940049 0.842957 7.413442 -2.130615 8.844244 -2.497068 3.050925 22.46164 6.330839 1.089599 -14.42389 10.06305 2.618436 -17.85269 10.23336 81.84232 24.69958 -6.899027 -0 0 22.1375 -28.53915 18.56034 13.82786 3.652274 -13.23106 -3.070591 -90.6948 23.47578 21.85051 0 0 -9.253104 -3.00088 6.857916 17.32056
1375.907 78.57528 -499.7007 -7.640111 5.653652 -137.3781 0.01264337 7.485481 5.637265 -0 50.26242 -0 9.391725 -6.872328 -6.673977 -3.994388 -10.97771 -7.32924 -0 26.62584 -0 -7.22203 -10.86394 16.77887 -2.062245 0.8622001 7.033813 -2.059903 8.874485 -2.743539 2.97274 22.52877 6.456685 1.078603 -14.35721 10.13689 2.774101 -17.45996 10.20048 82.28873 25.14575 -7.518768 -0 0 21.31777 -28.52381 18.75415 13.80439 3.63566 -13.46254 -3.179929 -90.07064 23.50691 20.89241 0 0 -9.694394 -2.815471 6.922196 17.07512
1370.636 78.98782 -503.8696 -7.794588 5.593265 -136.3073 0.0003332923 5.605685 5.456487 -0 51.57262 -0 9.408357 -6.435854 -7.087974 -4.272526 -9.027782 -7.539859 -0 26.30494 -0 -7.146211 -11.22958 16.53541 -2.127195 0.9154182 6.63924 -1.993997 8.860975 -2.987156 2.915412 22.60313 6.601846 1.048134 -14.18347 10.27134 2.913494 -17.00204 10.13796 82.73044 25.58259 -8.186051 -0 0 20.54937 -28.50767 19.09196 13.72253 3.694628 -13.70147 -3.280528 -89.3817 23.52761 19.7379 0 0 -10.27654 -2.602771 7.016387 16.74412
1365.376 79.40704 -507.9304 -7.939826 5.542447 -135.1732 0.02751261 3.51055 5.295237 -0 52.28805 -0 9.537569 -6.394454 -7.474636 -4.491488 -6.940156 -7.767428 -0 25.97579 -0 -7.16664 -11.61093 16.28073 -2.141338 0.9917129 6.237438 -1.935689 8.788962 -3.22259 2.881614 22.68643 6.766729 1.00246 -13.90402 10.46724 3.036309 -16.47032 10.03686 83.1552 26.04317 -8.889373 -0 0 19.82607 -28.49653 19.58008 13.58515 3.833686 -13.94373 -3.360336 -88.62968 23.53755 18.38627 0 0 -10.99621 -2.354502 7.151056 16.31872
1360.123 79.78946 -511.8952 -8.068509 5.488193 -134.0012 0.0771625 1.25626 5.148714 -0 52.32991 -0 9.762062 -6.735499 -7.817595 -4.653028 -4.740512 -8.015056 -0 25.68114 -0 -7.282998 -11.98536 16.02006 -2.114321 1.078165 5.835897 -1.888166 8.650919 -3.44446 2.874389 22.78061 6.951612 0.945877 -13.52079 10.72556 3.145411 -15.85437 9.891598 83.55901 26.56646 -9.624591 -0 0 19.12875 -28.50602 20.23124 13.40132 4.053528 -14.18891 -3.410338 -87.8118 23.52393 16.83098 0 0 -11.84821 -2.053768 7.33684 15.77911
1354.867 80.09709 -515.7867 -8.177631 5.419228 -132.8179 0.1316361 -1.080899 5.015283 -0 51.63119 -0 10.06373 -7.419676 -8.101345 -4.76035 -2.461893 -8.282385 -0 25.49724 -0 -7.484649 -12.32077 15.76604 -2.05739 1.159337 5.444354 -1.855136 8.448327 -3.646261 2.897006 22.88608 7.155541 0.8822139 -13.03972 11.04623 3.24528 -15.14752 9.701137 83.94502 27.18879 -10.39132 -0 0 18.43272 -28.56114 21.06025 13.18745 4.350376 -14.43801 -3.424189 -86.92847 23.45966 15.0727 0 0 -12.81966 -1.677061 7.581127 15.09811
